<svg xmlns="http://www.w3.org/2000/svg" xmlns:xlink="http://www.w3.org/1999/xlink" viewBox="0 0 556 421.4"><defs><style>.cls-1,.cls-2{fill:none;}.cls-2{stroke:#ffd500;stroke-miterlimit:10;}.cls-3{fill:url(#New_Pattern);}</style><pattern id="New_Pattern" data-name="New Pattern" width="180" height="180" patternTransform="matrix(1, 0, 0, -1, -26.5, 636)" patternUnits="userSpaceOnUse" viewBox="0 0 180 180"><rect class="cls-1" width="180" height="180"/><rect class="cls-1" width="180" height="180"/><path class="cls-2" d="M195-22.5h30v15H195Zm15,15h30v15H210m-30-15h30v15H180Zm15,15h30v15H195Z"/><path class="cls-2" d="M105-22.5h30v15H105Zm15,15h30v15H120M90-7.5h30v15H90Zm15,15h30v15H105Z"/><polyline class="cls-2" points="150 -7.5 180 -7.5 180 7.5"/><line class="cls-2" x1="180" y1="7.5" x2="150" y2="7.5"/><polyline class="cls-2" points="165 7.5 165 22.5 135 22.5 135 7.5"/><polyline class="cls-2" points="195 7.5 195 22.5 165 22.5 165 7.5"/><line class="cls-2" x1="165" y1="7.5" x2="195" y2="7.5"/><path class="cls-2" d="M15-22.5H45v15H15Zm15,15H60v15H30M0-7.5H30v15H0Zm15,15H45v15H15Z"/><polyline class="cls-2" points="60 -7.5 90 -7.5 90 7.5"/><line class="cls-2" x1="90" y1="7.5" x2="60" y2="7.5"/><polyline class="cls-2" points="75 7.5 75 22.5 45 22.5 45 7.5"/><polyline class="cls-2" points="105 7.5 105 22.5 75 22.5 75 7.5"/><line class="cls-2" x1="75" y1="7.5" x2="105" y2="7.5"/><polyline class="cls-2" points="-30 -7.5 0 -7.5 0 7.5"/><polyline class="cls-2" points="15 7.5 15 22.5 -15 22.5 -15 7.5"/><line class="cls-2" x1="-15" y1="7.5" x2="15" y2="7.5"/><path class="cls-2" d="M127.5,22.5h30v15h-30Zm15,15h30v15h-30m-30-15h30v15h-30Zm15,15h30v15h-30Z"/><polyline class="cls-2" points="157.5 37.5 157.5 22.5 187.5 22.5 187.5 37.5"/><polyline class="cls-2" points="97.5 37.5 97.5 22.5 127.5 22.5 127.5 37.5"/><polyline class="cls-2" points="172.5 37.5 202.5 37.5 202.5 52.5"/><line class="cls-2" x1="202.5" y1="52.5" x2="172.5" y2="52.5"/><line class="cls-2" x1="127.5" y1="37.5" x2="97.5" y2="37.5"/><polyline class="cls-2" points="187.5 52.5 187.5 67.5 157.5 67.5 157.5 52.5"/><path class="cls-2" d="M37.5,22.5h30v15h-30Zm15,15h30v15h-30m-30-15h30v15h-30Zm15,15h30v15h-30Z"/><polyline class="cls-2" points="67.5 37.5 67.5 22.5 97.5 22.5 97.5 37.5"/><polyline class="cls-2" points="7.5 37.5 7.5 22.5 37.5 22.5 37.5 37.5"/><polyline class="cls-2" points="82.5 37.5 112.5 37.5 112.5 52.5"/><line class="cls-2" x1="112.5" y1="52.5" x2="82.5" y2="52.5"/><line class="cls-2" x1="37.5" y1="37.5" x2="7.5" y2="37.5"/><polyline class="cls-2" points="97.5 52.5 97.5 67.5 67.5 67.5 67.5 52.5"/><polyline class="cls-2" points="127.5 52.5 127.5 67.5 97.5 67.5 97.5 52.5"/><line class="cls-2" x1="97.5" y1="52.5" x2="127.5" y2="52.5"/><polyline class="cls-2" points="-22.5 37.5 -22.5 22.5 7.5 22.5 7.5 37.5"/><polyline class="cls-2" points="-7.5 37.5 22.5 37.5 22.5 52.5"/><line class="cls-2" x1="22.5" y1="52.5" x2="-7.5" y2="52.5"/><polyline class="cls-2" points="7.5 52.5 7.5 67.5 -22.5 67.5 -22.5 52.5"/><polyline class="cls-2" points="37.5 52.5 37.5 67.5 7.5 67.5 7.5 52.5"/><line class="cls-2" x1="7.5" y1="52.5" x2="37.5" y2="52.5"/><path class="cls-2" d="M150,67.5h30v15H150Zm15,15h30v15H165m-30-15h30v15H135Zm15,15h30v15H150Z"/><polyline class="cls-2" points="180 82.5 180 67.5 210 67.5 210 82.5"/><polyline class="cls-2" points="120 82.5 120 67.5 150 67.5 150 82.5"/><line class="cls-2" x1="150" y1="82.5" x2="120" y2="82.5"/><polyline class="cls-2" points="210 97.5 210 112.5 180 112.5 180 97.5"/><path class="cls-2" d="M60,67.5H90v15H60Zm15,15h30v15H75m-30-15H75v15H45Zm15,15H90v15H60Z"/><polyline class="cls-2" points="90 82.5 90 67.5 120 67.5 120 82.5"/><polyline class="cls-2" points="30 82.5 30 67.5 60 67.5 60 82.5"/><polyline class="cls-2" points="105 82.5 135 82.5 135 97.5"/><line class="cls-2" x1="135" y1="97.5" x2="105" y2="97.5"/><line class="cls-2" x1="60" y1="82.5" x2="30" y2="82.5"/><polyline class="cls-2" points="120 97.5 120 112.5 90 112.5 90 97.5"/><polyline class="cls-2" points="150 97.5 150 112.5 120 112.5 120 97.5"/><line class="cls-2" x1="120" y1="97.5" x2="150" y2="97.5"/><path class="cls-2" d="M-30,67.5H0v15H-30Zm15,15H15v15H-15m-30-15h30v15H-45Zm15,15H0v15H-30Z"/><polyline class="cls-2" points="0 82.5 0 67.5 30 67.5 30 82.5"/><polyline class="cls-2" points="15 82.5 45 82.5 45 97.5"/><line class="cls-2" x1="45" y1="97.5" x2="15" y2="97.5"/><polyline class="cls-2" points="30 97.5 30 112.5 0 112.5 0 97.5"/><polyline class="cls-2" points="60 97.5 60 112.5 30 112.5 30 97.5"/><line class="cls-2" x1="30" y1="97.5" x2="60" y2="97.5"/><path class="cls-2" d="M172.5,112.5h30v15h-30Zm15,15h30v15h-30m-30-15h30v15h-30Zm15,15h30v15h-30Z"/><polyline class="cls-2" points="142.5 127.5 142.5 112.5 172.5 112.5 172.5 127.5"/><line class="cls-2" x1="172.5" y1="127.5" x2="142.5" y2="127.5"/><path class="cls-2" d="M82.5,112.5h30v15h-30Zm15,15h30v15h-30m-30-15h30v15h-30Zm15,15h30v15h-30Z"/><polyline class="cls-2" points="112.5 127.5 112.5 112.5 142.5 112.5 142.5 127.5"/><polyline class="cls-2" points="52.5 127.5 52.5 112.5 82.5 112.5 82.5 127.5"/><polyline class="cls-2" points="127.5 127.5 157.5 127.5 157.5 142.5"/><line class="cls-2" x1="157.5" y1="142.5" x2="127.5" y2="142.5"/><line class="cls-2" x1="82.5" y1="127.5" x2="52.5" y2="127.5"/><polyline class="cls-2" points="142.5 142.5 142.5 157.5 112.5 157.5 112.5 142.5"/><polyline class="cls-2" points="172.5 142.5 172.5 157.5 142.5 157.5 142.5 142.5"/><line class="cls-2" x1="142.5" y1="142.5" x2="172.5" y2="142.5"/><path class="cls-2" d="M-7.5,112.5h30v15h-30Zm15,15h30v15H7.5m-30-15h30v15h-30Zm15,15h30v15h-30Z"/><polyline class="cls-2" points="22.5 127.5 22.5 112.5 52.5 112.5 52.5 127.5"/><polyline class="cls-2" points="37.5 127.5 67.5 127.5 67.5 142.5"/><line class="cls-2" x1="67.5" y1="142.5" x2="37.5" y2="142.5"/><polyline class="cls-2" points="52.5 142.5 52.5 157.5 22.5 157.5 22.5 142.5"/><polyline class="cls-2" points="82.5 142.5 82.5 157.5 52.5 157.5 52.5 142.5"/><line class="cls-2" x1="52.5" y1="142.5" x2="82.5" y2="142.5"/><path class="cls-2" d="M195,157.5h30v15H195Zm15,15h30v15H210m-30-15h30v15H180Zm15,15h30v15H195Z"/><polyline class="cls-2" points="165 172.5 165 157.5 195 157.5 195 172.5"/><line class="cls-2" x1="195" y1="172.5" x2="165" y2="172.5"/><path class="cls-2" d="M105,157.5h30v15H105Zm15,15h30v15H120m-30-15h30v15H90Zm15,15h30v15H105Z"/><polyline class="cls-2" points="135 172.5 135 157.5 165 157.5 165 172.5"/><polyline class="cls-2" points="75 172.5 75 157.5 105 157.5 105 172.5"/><polyline class="cls-2" points="150 172.5 180 172.5 180 187.5"/><line class="cls-2" x1="105" y1="172.5" x2="75" y2="172.5"/><path class="cls-2" d="M15,157.5H45v15H15Zm15,15H60v15H30m-30-15H30v15H0Zm15,15H45v15H15Z"/><polyline class="cls-2" points="45 172.5 45 157.5 75 157.5 75 172.5"/><polyline class="cls-2" points="-15 172.5 -15 157.5 15 157.5 15 172.5"/><polyline class="cls-2" points="60 172.5 90 172.5 90 187.5"/><line class="cls-2" x1="15" y1="172.5" x2="-15" y2="172.5"/><polyline class="cls-2" points="-30 172.5 0 172.5 0 187.5"/></pattern></defs><g id="Layer_2" data-name="Layer 2"><g id="Layer_1-2" data-name="Layer 1"><rect class="cls-3" width="556" height="421.4"/></g></g></svg>