<svg xmlns="http://www.w3.org/2000/svg" xmlns:xlink="http://www.w3.org/1999/xlink" viewBox="0 0 32 24"><defs><style>.cls-1{fill:none;}.cls-2{clip-path:url(#clip-path);}.cls-3{fill:#bd3d44;}.cls-3,.cls-4,.cls-5{fill-rule:evenodd;}.cls-4{fill:#fff;}.cls-5{fill:#192f5d;}</style><clipPath id="clip-path"><rect class="cls-1" width="32" height="24" rx="4.4"/></clipPath></defs><g id="Layer_2" data-name="Layer 2"><g id="flag-icons-ua"><g class="cls-2"><path class="cls-3" d="M0,0H32V1.85H0ZM0,3.69H32V5.54H0ZM0,7.38H32V9.23H0Zm0,3.7H32v1.84H0Zm0,3.69H32v1.85H0Zm0,3.69H32v1.85H0Zm0,3.69H32V24H0Z"/><path class="cls-4" d="M0,1.85H32V3.69H0ZM0,5.54H32V7.38H0ZM0,9.23H32v1.85H0Zm0,3.69H32v1.85H0Zm0,3.7H32v1.84H0Zm0,3.69H32v1.84H0Z"/><path class="cls-5" d="M0,0H18.24V12.92H0Z"/><path class="cls-4" d="M1.52.55l.17.51h.53l-.43.32L2,1.89l-.43-.31-.43.31.16-.51L.82,1.06h.54Zm3,0,.17.51h.53l-.43.32L5,1.89l-.43-.31-.44.31.17-.51-.43-.32h.53Zm3,0,.17.51H8.3l-.43.32L8,1.89l-.44-.31-.43.31.17-.51-.44-.32h.54Zm3,0,.16.51h.54l-.43.32.17.51-.44-.31-.44.31.17-.51-.43-.32h.53Zm3,0,.17.51h.53L14,1.38l.16.51-.43-.31-.43.31.16-.51L13,1.06h.53Zm3,0,.16.51h.54L17,1.38l.17.51-.44-.31-.44.31.17-.51L16,1.06h.54ZM3,1.85l.17.51h.54l-.44.31.16.51-.42-.31-.44.31.16-.51-.43-.31h.54Zm3,0,.17.51h.53l-.43.31.17.51-.44-.31-.44.31.17-.51-.43-.31h.54Zm3,0,.17.51h.54l-.44.31.16.51-.43-.31-.43.31.16-.51-.43-.31H9Zm3,0,.17.51h.53l-.43.31.17.51-.44-.31-.43.31.16-.51-.43-.31H12Zm3,0,.17.51h.53l-.43.31.16.51-.43-.31-.43.31.16-.51-.43-.31H15ZM1.52,3.14l.17.52h.53L1.79,4,2,4.48l-.43-.32-.43.32L1.25,4,.82,3.65h.54Zm3,0,.17.51h.53L4.83,4,5,4.48l-.43-.32-.44.32L4.29,4l-.43-.31h.53Zm3,0,.17.51H8.3L7.87,4,8,4.48l-.44-.32-.43.32L7.33,4l-.44-.31h.54Zm3,0,.16.51h.54L10.91,4l.17.51-.44-.32-.44.32L10.37,4l-.43-.31h.53Zm3,0,.17.51h.53L14,4l.16.51-.43-.32-.43.32L13.41,4,13,3.65h.53Zm3,0,.16.51h.54L17,4l.17.51-.44-.32-.44.32L16.45,4,16,3.65h.54ZM3,4.43l.17.51h.54l-.44.31.16.52L3,5.45l-.43.32.16-.52-.43-.31h.53Zm3,0,.17.51h.53l-.43.31.17.52-.44-.32-.44.32.17-.52-.43-.31h.54Zm3,0,.17.51h.54l-.44.31.16.52-.43-.32-.43.32.16-.52-.43-.31H9Zm3,0,.17.51h.53l-.43.31.17.52-.44-.32-.43.32.16-.52-.43-.31H12Zm3,0,.17.51h.53l-.43.31.16.52-.43-.32-.43.32.16-.52-.43-.31H15ZM1.52,5.72l.17.51h.53l-.43.32L2,7.06l-.43-.31-.43.31.16-.51L.82,6.23h.54Zm3,0,.17.51h.53l-.43.32L5,7.06l-.43-.31-.44.31.17-.51-.43-.32h.53Zm3,0,.17.51H8.3l-.43.32L8,7.06l-.44-.31-.43.31.17-.51-.44-.32h.54Zm3,0,.16.51h.54l-.43.32.17.51-.44-.31-.44.31.17-.51-.43-.32h.53Zm3,0,.17.51h.53L14,6.55l.16.51-.43-.31-.43.31.16-.51L13,6.23h.53Zm3,0,.16.51h.54L17,6.55l.17.51-.44-.31-.44.31.17-.51L16,6.23h.54ZM3,7l.17.51h.54l-.44.31.16.51L3,8l-.43.32.16-.51-.43-.32h.53Zm3,0,.17.51h.53l-.43.31.17.51L6.08,8l-.44.32.17-.51-.43-.32h.54Zm3,0,.17.51h.54l-.44.31.16.51L9.12,8l-.43.32.16-.51-.43-.32H9Zm3,0,.17.51h.53l-.43.31.17.51L12.16,8l-.43.32.16-.51-.43-.32H12Zm3,0,.17.51h.53l-.43.31.16.51L15.2,8l-.43.32.16-.51-.43-.32H15ZM1.52,8.31l.17.51h.53l-.43.32.16.5-.43-.31-.43.31.16-.51L.82,8.82h.54Zm3,0,.17.51h.53l-.43.32.17.5-.44-.31-.44.31.17-.51-.43-.31h.53Zm3,0,.17.51H8.3l-.43.32.16.5-.44-.31-.43.31.17-.51-.44-.31h.54Zm3,0,.16.51h.54l-.43.32.17.5-.44-.31-.44.31.17-.51-.43-.31h.53Zm3,0,.17.51h.53L14,9.14l.16.5-.43-.31-.43.31.16-.51L13,8.82h.53Zm3,0,.16.51h.54L17,9.14l.17.5-.44-.31-.44.31.17-.51L16,8.82h.54ZM3,9.6l.17.51h.54l-.44.31.16.52L3,10.62l-.43.32.16-.52-.43-.31h.53Zm3,0,.17.51h.53l-.43.31.17.52-.44-.32-.44.32.17-.52-.43-.31h.54Zm3,0,.17.51h.54l-.44.31.16.52-.43-.32-.43.32.16-.52-.43-.31H9Zm3,0,.17.51h.53l-.43.31.17.52-.44-.32-.43.32.16-.52-.43-.31H12Zm3,0,.17.51h.53l-.43.31.16.52-.43-.32-.43.32.16-.52-.43-.31H15ZM1.52,10.89l.17.51h.53l-.43.32.16.51-.43-.31-.43.31.16-.52L.82,11.4h.54Zm3,0,.17.51h.53l-.43.32.17.51-.44-.31-.44.31.17-.52-.43-.31h.53Zm3,0,.17.51H8.3l-.43.32.17.51-.44-.31-.43.31.17-.52L6.9,11.4h.54Zm3,0,.16.51h.54l-.43.32.17.51-.44-.31-.44.31.17-.52-.43-.31h.53Zm3,0,.17.51h.53l-.43.32.16.51-.43-.31-.43.31.16-.52L13,11.4h.53Zm3,0,.16.51h.54l-.43.32.17.51-.44-.31-.44.31.17-.52L16,11.4h.54Z"/></g></g></g></svg>